<?xml version="1.0" encoding="UTF-8"?>
<svg width="24px" height="24px" viewBox="0 0 24 24" version="1.1" xmlns="http://www.w3.org/2000/svg" xmlns:xlink="http://www.w3.org/1999/xlink">
    <!-- Generator: Sketch 52.2 (67145) - http://www.bohemiancoding.com/sketch -->
    <title>icon=巡检点位</title>
    <desc>Created with Sketch.</desc>
    <g id="最终稿" stroke="none" stroke-width="1" fill="none" fill-rule="evenodd">
        <g id="日常管理-景区全览1" transform="translate(-920.000000, -932.000000)">
            <g id="分组-38" transform="translate(693.000000, 765.000000)">
                <g id="图例" transform="translate(27.000000, 65.000000)">
                    <g id="icon-copy-38" transform="translate(200.000000, 102.000000)">
                        <g id="icon=巡检点位">
                            <circle id="Oval" fill="#26E2FB" cx="12" cy="12" r="12"></circle>
                            <g id="巡更" transform="translate(7.000000, 4.000000)" fill="#FFFFFF" fill-rule="nonzero">
                                <path d="M8.55583427,4.16666777 L1.44416573,4.16666777 C0.6541654,4.16666777 0,4.76416687 0,5.48666685 L0,13.6800009 C0,14.4025009 0.654166864,15 1.44416573,15 L8.55583427,15 C9.3458346,15 10,14.4025009 10,13.6800009 L10,5.48666685 C10,4.76416687 9.34583314,4.16666777 8.55583427,4.16666777 Z M4.98833985,5.08833363 C5.42000578,5.08833363 5.75667368,5.46166637 5.75667368,5.88500006 C5.75667367,6.30833375 5.39667375,6.68166649 4.98833985,6.68166649 C4.58000594,6.68166649 4.21917398,6.30833375 4.21917398,5.88500006 C4.21917397,5.46166637 4.55584042,5.08833363 4.98833985,5.08833363 Z M2.01000547,5.08833363 C2.44250489,5.08833363 2.7783393,5.46166637 2.7783393,5.88500006 C2.77833929,6.30833375 2.41833937,6.68166649 2.01000547,6.68166649 C1.57750604,6.68166649 1.24167163,6.30833375 1.24167163,5.88500006 C1.24167163,5.46166637 1.57750457,5.08833363 2.01000547,5.08833363 Z M4.98833985,13.5549927 C4.1716735,13.5549927 3.49917998,12.8583267 3.49917998,12.0116637 C3.49917997,11.1649978 4.17167936,10.4674998 4.98833985,10.4674998 C5.80500619,10.4674998 6.4766794,11.1649993 6.4766794,12.0116637 C6.47667938,12.8583296 5.80418002,13.5558277 4.98833985,13.5558277 L4.98833985,13.5549927 Z M8.66250417,8.45000119 C8.66250417,8.72416701 8.44583771,8.92333435 8.20583775,8.92333435 L1.79417397,8.92333435 C1.53740155,8.91877396 1.33294456,8.70692288 1.33750462,8.4501506 C1.3375055,8.45010083 1.3375064,8.45005106 1.3375073,8.45000128 L1.3375073,7.8775012 C1.3375073,7.60333537 1.55417376,7.40416803 1.79417371,7.40416803 L8.2058375,7.40416803 C8.47000444,7.40416803 8.66250391,7.62833438 8.66250391,7.8775012 L8.66250391,8.45000128 L8.66250417,8.45000119 Z M7.99000479,6.70666257 C7.55750536,6.70666257 7.22167095,6.33332982 7.22167095,5.90999614 C7.22167097,5.48666245 7.58167088,5.11332971 7.99000479,5.11332971 C8.39833869,5.11332971 8.75833862,5.48666245 8.75833862,5.90999614 C8.75833862,6.33332982 8.42250568,6.70666257 7.99000479,6.70666257 Z M4.58333553,3.08333016 C4.5833355,3.31344811 4.76988335,3.49999583 5.00000146,3.49999583 C5.23011958,3.49999587 5.4166674,3.31344811 5.4166674,3.08333011 C5.4166674,3.0833301 5.4166674,3.08333009 5.4166674,3.08333008 C5.4166674,2.85321207 5.23011958,2.66666435 5.00000146,2.66666435 C4.76988335,2.66666435 4.58333553,2.85321207 4.58333553,3.08333008 Z M3.60250271,2.89833077 C3.60250271,2.89833077 4.90666896,1.34000179 6.44583712,2.97499742 C6.81083656,3.20499677 7.15000349,3.0774973 7.07167098,2.51499726 C7.07167098,2.51499726 6.915838,1.95333115 6.02833769,1.62083089 C6.02833769,1.62083089 5.68917076,1.41666404 5.24583735,1.41666404 L4.41167053,1.41666404 C4.25500405,1.46749731 3.62833669,1.54416395 3.10750428,2.13166403 C2.58583836,2.7191641 3.26417075,3.1533303 3.60250418,2.89833048 L3.60250271,2.89833077 Z M3.00500332,1.46499829 C3.00500332,1.46499829 4.85833792,-0.11416076 7.02500253,1.55666492 C7.53083642,1.78499874 8.03583534,1.67083154 7.89166838,1.09833175 C7.89166838,1.09833175 7.67500192,0.526665157 6.42333859,0.20666587 C6.42333859,0.20666587 5.94167169,0 5.34000482,0 L4.18500504,0 C3.96833858,0.0458333174 3.07750575,0.137499952 2.3550054,0.709165517 C1.63333855,1.2816656 2.52417138,1.7166653 3.00500478,1.46499799 L3.00500332,1.46499829 Z" id="形状"></path>
                            </g>
                        </g>
                    </g>
                </g>
            </g>
        </g>
    </g>
</svg>